<?xml version="1.0" encoding="utf-8"?>
<!-- Generator: Adobe Illustrator 22.1.0, SVG Export Plug-In . SVG Version: 6.00 Build 0)  -->
<svg version="1.1" id="Layer_1" xmlns="http://www.w3.org/2000/svg" xmlns:xlink="http://www.w3.org/1999/xlink" x="0px" y="0px"
	 viewBox="0 0 512 512" style="enable-background:new 0 0 512 512;" xml:space="preserve">
<g>
	<path d="M467.1,413.9l-106.6-90.6c-11-9.9-22.8-14.5-32.3-14c25.2-29.5,40.4-67.7,40.4-109.5C368.5,106.5,293,31,199.8,31
		S31,106.5,31,199.8s75.5,168.8,168.8,168.8c41.8,0,80-15.2,109.5-40.4c-0.5,9.5,4.1,21.3,14,32.3l90.6,106.6
		c15.5,17.2,40.9,18.7,56.3,3.2C485.7,454.8,484.3,429.5,467.1,413.9L467.1,413.9z M199.8,312.2c-62.1,0-112.5-50.4-112.5-112.5
		S137.6,87.2,199.8,87.2s112.5,50.4,112.5,112.5S261.9,312.2,199.8,312.2z M227.9,115.3h-56.3v56.3h-56.3v56.3h56.3v56.3h56.3v-56.3
		h56.3v-56.3h-56.3V115.3z"/>
</g>
</svg>
